PathFileType	4	(X/Y/Z)	/Users/itak/Documents/Research/Walk-IL/dataset/trc/00403_00012.trc
DataRate	CameraRate	NumFrames	NumMarkers	Units	OrigDataRate	OrigDataStartFrame	OrigNumFrames
100.000000	100.000000	4	53	mm	100.000000	0	566
Frame#	Time	RPSI			LPSI			L3			STRN			T10			C7			CLAV			RBAK			LBAK			LSHO			LUPA			LAEL			LAOL			LWTS			LWPS			LFRA			LHPS			LHTS			RSHO			RUPA			RAEL			RAOL			RWTS			RWPS			RFRA			RIFD			RHTS			RHPS			RBHD			LFHD			RFHD			LBHD			LHIP			RHIP			RASI			LASI			LKNE			LTHI			LANK			LTIP			LTOE			LMT1			LMT5			LHEE			RKNE			RTHI			RANK			RTIP			RTOE			RMT1			RMT5			RHEE			LIFD			
		X1	Y1	Z1	X2	Y2	Z2	X3	Y3	Z3	X4	Y4	Z4	X5	Y5	Z5	X6	Y6	Z6	X7	Y7	Z7	X8	Y8	Z8	X9	Y9	Z9	X10	Y10	Z10	X11	Y11	Z11	X12	Y12	Z12	X13	Y13	Z13	X14	Y14	Z14	X15	Y15	Z15	X16	Y16	Z16	X17	Y17	Z17	X18	Y18	Z18	X19	Y19	Z19	X20	Y20	Z20	X21	Y21	Z21	X22	Y22	Z22	X23	Y23	Z23	X24	Y24	Z24	X25	Y25	Z25	X26	Y26	Z26	X27	Y27	Z27	X28	Y28	Z28	X29	Y29	Z29	X30	Y30	Z30	X31	Y31	Z31	X32	Y32	Z32	X33	Y33	Z33	X34	Y34	Z34	X35	Y35	Z35	X36	Y36	Z36	X37	Y37	Z37	X38	Y38	Z38	X39	Y39	Z39	X40	Y40	Z40	X41	Y41	Z41	X42	Y42	Z42	X43	Y43	Z43	X44	Y44	Z44	X45	Y45	Z45	X46	Y46	Z46	X47	Y47	Z47	X48	Y48	Z48	X49	Y49	Z49	X50	Y50	Z50	X51	Y51	Z51	X52	Y52	Z52	X53	Y53	Z53	

1	0	271.3041381835938	989.1420288085938	1104.345581054688	286.1719665527344	981.66162109375	1234.70703125	277.7209167480469	1055.05224609375	1166.48974609375	46.03976440429688	1217.481811523438	1177.019775390625	288.1024475097656	1156.546508789062	1169.435668945312	261.9404602050781	1407.55615234375	1177.542236328125	101.3442611694336	1335.629638671875	1175.113159179688	295.8705444335938	1258.44580078125	1110.521728515625	275.5831604003906	1370.6494140625	1281.809326171875	189.6735076904297	1389.5400390625	1333.93701171875	207.9220275878906	1270.924072265625	1403.040405273438	177.5879516601562	1073.787841796875	1425.9140625	230.2314758300781	1050.712036132812	1363.883911132812	64.88249206542969	867.3689575195312	1384.08056640625	119.5121383666992	848.5547485351562	1443.681884765625	153.8303985595703	970.1815185546875	1434.611083984375	98.69190216064453	764.5670776367188	1435.779174804688	41.81510543823242	773.3812866210938	1404.717163085938	197.8093414306641	1386.047729492188	1019.083374023438	204.0433959960938	1319.680419921875	960.3209838867188	187.0371398925781	1055.350341796875	931.4589233398438	204.7195587158203	1049.236694335938	1024.487670898438	46.29029846191406	849.0291137695312	954.1962890625	95.18344879150391	832.9561767578125	900.945556640625	160.0248107910156	990.8817138671875	915.5032958984375	35.5074577331543	674.2420654296875	951.0648803710938	22.45987701416016	744.7426147460938	934.0712890625	84.30242156982422	745.3515014648438	902.3488159179688	222.796630859375	1598.203369140625	1088.984497070312	85.41691589355469	1606.853271484375	1231.490478515625	90.70269012451172	1610.110473632812	1109.6103515625	233.3578643798828	1592.731811523438	1249.114868164062	208.7280731201172	969.7700805664062	1353.46875	180.4323883056641	963.780029296875	996.3734741210938	50.53487396240234	973.4663696289062	1060.236694335938	88.04544830322266	969.1773071289062	1321.761108398438	164.9342803955078	475.8683166503906	1340.291381835938	171.9111022949219	618.4688720703125	1349.7392578125	256.5406494140625	43.00642776489258	1297.464477539062	211.8613586425781	245.3662872314453	1330.819946289062	37.69358062744141	45.71355819702148	1247.472045898438	117.5609512329102	42.7033805847168	1210.9755859375	131.3993072509766	43.25322723388672	1316.960205078125	292.3123168945312	37.45181274414062	1240.647705078125	155.8484649658203	473.6692810058594	1023.717224121094	108.5187683105469	735.2796630859375	1002.473022460938	203.8904266357422	53.07188034057617	1066.735595703125	149.1047973632812	348.1824035644531	1040.98974609375	25.90324592590332	41.99406051635742	1134.261962890625	102.945068359375	45.89300918579102	1161.951049804688	118.9973449707031	43.89362335205078	1063.25146484375	278.3451232910156	40.65550231933594	1118.638305664062	50.92311096191406	688.4740600585938	1387.465087890625	
2	0.01	271.2843933105469	989.1336669921875	1104.360595703125	286.1551818847656	981.6417846679688	1234.744506835938	277.7069702148438	1055.048828125	1166.50439453125	46.02524185180664	1217.46044921875	1177.032348632812	288.0845947265625	1156.5439453125	1169.43896484375	261.9230346679688	1407.557739257812	1177.54052734375	101.3439407348633	1335.61767578125	1175.109741210938	295.8583374023438	1258.442016601562	1110.5234375	275.5497131347656	1370.667358398438	1281.8369140625	189.6639556884766	1389.54052734375	1333.9326171875	207.8933258056641	1270.92919921875	1403.04248046875	177.5587615966797	1073.788208007812	1425.914184570312	230.2148284912109	1050.715454101562	1363.876220703125	64.87390899658203	867.3807983398438	1384.07763671875	119.521858215332	848.5602416992188	1443.681518554688	153.8199310302734	970.185302734375	1434.613403320312	98.68583679199219	764.5635375976562	1435.776123046875	41.80505752563477	773.3831787109375	1404.723388671875	197.7843933105469	1386.021240234375	1019.077453613281	204.0089111328125	1319.667114257812	960.3135986328125	187.0220489501953	1055.3349609375	931.4683227539062	204.6639099121094	1049.215576171875	1024.494018554688	46.25244903564453	848.9989013671875	954.2059326171875	95.1634521484375	832.9331665039062	900.9615478515625	160.0008392333984	990.8607177734375	915.5113525390625	35.47357940673828	674.23095703125	951.0971069335938	22.46804428100586	744.7047729492188	934.1209716796875	84.23926544189453	745.314697265625	902.3745727539062	222.7828521728516	1598.204711914062	1088.91455078125	85.35015106201172	1606.850708007812	1231.443725585938	90.64447021484375	1610.06982421875	1109.528076171875	233.2928009033203	1592.751342773438	1249.080322265625	208.6943664550781	969.7890014648438	1353.49169921875	180.4031524658203	963.7683715820312	996.3963623046875	50.51074981689453	973.4527587890625	1060.258178710938	88.01245880126953	969.1928100585938	1321.75927734375	164.7731628417969	475.881103515625	1340.300903320312	171.8085174560547	618.450439453125	1349.754150390625	256.5536804199219	42.9862060546875	1297.47216796875	211.7280120849609	245.3650817871094	1330.776245117188	37.7877311706543	45.78683853149414	1247.43896484375	117.5827789306641	42.71816635131836	1210.988647460938	131.3895568847656	43.27695465087891	1316.965942382812	292.3179321289062	37.40774917602539	1240.65869140625	155.8107757568359	473.6568603515625	1023.693054199219	108.5072250366211	735.2615356445312	1002.4677734375	203.8884887695312	53.07655334472656	1066.729858398438	149.0643310546875	348.1710205078125	1040.972045898438	25.90809631347656	42.0162353515625	1134.286254882812	102.9427795410156	45.88993835449219	1161.9521484375	118.9983673095703	43.89118957519531	1063.249145507812	278.3380737304688	40.63829803466797	1118.6240234375	50.91164779663086	688.4717407226562	1387.464111328125	
3	0.02	271.2627563476562	989.12939453125	1104.382934570312	286.1395874023438	981.6223754882812	1234.798217773438	277.6879272460938	1055.046508789062	1166.527099609375	46.00071716308594	1217.428588867188	1177.052001953125	288.056640625	1156.541259765625	1169.447143554688	261.893798828125	1407.558837890625	1177.536010742188	101.3422546386719	1335.602661132812	1175.104858398438	295.8395080566406	1258.438598632812	1110.52734375	275.5056762695312	1370.690063476562	1281.869140625	189.6513214111328	1389.5419921875	1333.927612304688	207.8568725585938	1270.937377929688	1403.046997070312	177.5215454101562	1073.79052734375	1425.915893554688	230.1977844238281	1050.719970703125	1363.870727539062	64.86557006835938	867.3980712890625	1384.077026367188	119.5289993286133	848.5687255859375	1443.683959960938	153.8067169189453	970.1927490234375	1434.619140625	98.6783447265625	764.561767578125	1435.777099609375	41.79455947875977	773.3916015625	1404.736694335938	197.7395477294922	1385.98681640625	1019.069702148438	203.9627227783203	1319.647705078125	960.3087768554688	186.9982452392578	1055.314819335938	931.4786987304688	204.5786895751953	1049.186889648438	1024.5009765625	46.20640182495117	848.9609375	954.216064453125	95.13531494140625	832.9039916992188	900.9757690429688	159.9697418212891	990.835205078125	915.5199584960938	35.43289184570312	674.214599609375	951.1339721679688	22.47446823120117	744.6536865234375	934.1769409179688	84.16184234619141	745.2654418945312	902.403076171875	222.7618103027344	1598.20458984375	1088.829467773438	85.26448059082031	1606.849487304688	1231.3857421875	90.57305145263672	1610.019409179688	1109.42578125	233.2099914550781	1592.776977539062	1249.041381835938	208.6498107910156	969.8176879882812	1353.531494140625	180.3620300292969	963.7537231445312	996.42919921875	50.47807693481445	973.4309692382812	1060.294921875	87.98210144042969	969.2198486328125	1321.759033203125	164.4842376708984	475.8956909179688	1340.284301757812	171.6408386230469	618.4221801757812	1349.76171875	256.5737609863281	42.95859146118164	1297.48095703125	211.4976501464844	245.3601837158203	1330.702392578125	37.92831802368164	45.92414474487305	1247.37890625	117.6236724853516	42.74444580078125	1211.00048828125	131.3795471191406	43.32423400878906	1316.967163085938	292.3321533203125	37.34518432617188	1240.671997070312	155.7471771240234	473.6380920410156	1023.659973144531	108.4884262084961	735.2391967773438	1002.461608886719	203.8892364501953	53.08209991455078	1066.718872070312	148.99853515625	348.1511840820312	1040.947998046875	25.91825485229492	42.04964447021484	1134.315551757812	102.9451141357422	45.89059448242188	1161.95166015625	119.0018463134766	43.88758087158203	1063.24462890625	278.3331909179688	40.61116027832031	1118.59912109375	50.89900588989258	688.4700927734375	1387.463256835938	
4	0.03	271.24169921875	989.1329345703125	1104.413330078125	286.129638671875	981.60693359375	1234.869140625	277.6639404296875	1055.047119140625	1166.559326171875	45.96298599243164	1217.384765625	1177.08056640625	288.0163269042969	1156.539428710938	1169.4619140625	261.8491516113281	1407.559448242188	1177.527465820312	101.3374481201172	1335.585205078125	1175.098999023438	295.8122863769531	1258.436279296875	1110.5341796875	275.4514465332031	1370.71728515625	1281.902954101562	189.6354217529297	1389.545288085938	1333.922729492188	207.8139343261719	1270.950317382812	1403.055053710938	177.4779510498047	1073.796264648438	1425.920654296875	230.1837310791016	1050.725952148438	1363.870849609375	64.85987091064453	867.4214477539062	1384.080810546875	119.5302886962891	848.5811767578125	1443.691162109375	153.7910308837891	970.2056884765625	1434.6298828125	98.66963195800781	764.564208984375	1435.785278320312	41.78573608398438	773.4095458984375	1404.759399414062	197.6680603027344	1385.945556640625	1019.060546875	203.9036712646484	1319.621459960938	960.3091430664062	186.9629516601562	1055.290283203125	931.4887084960938	204.4598083496094	1049.151000976562	1024.507568359375	46.15428161621094	848.9166870117188	954.2246704101562	95.0977783203125	832.8697509765625	900.9837646484375	159.9315032958984	990.8068237304688	915.5276489257812	35.38756561279297	674.19189453125	951.1707153320312	22.47524070739746	744.58984375	934.2315673828125	84.07482147216797	745.2044677734375	902.4302368164062	222.7317352294922	1598.201904296875	1088.73388671875	85.16284942626953	1606.851440429688	1231.319580078125	90.49201965332031	1609.96240234375	1109.30908203125	233.1122741699219	1592.807739257812	1249.0009765625	208.5965423583984	969.8568725585938	1353.592529296875	180.3081207275391	963.7367553710938	996.47412109375	50.43727493286133	973.3988037109375	1060.351440429688	87.96253967285156	969.2597045898438	1321.762817382812	164.0249938964844	475.9087829589844	1340.223876953125	171.3875579833984	618.3811645507812	1349.753662109375	256.6016540527344	42.9245719909668	1297.489868164062	211.1432800292969	245.3497314453125	1330.59033203125	38.11993026733398	46.14455413818359	1247.284057617188	117.688835144043	42.78487777709961	1211.0068359375	131.3712005615234	43.40335845947266	1316.959350585938	292.3581848144531	37.26405334472656	1240.6865234375	155.6510467529297	473.6123657226562	1023.617980957031	108.46044921875	735.21435546875	1002.455444335938	203.8942718505859	53.08779907226562	1066.7001953125	148.9019622802734	348.12060546875	1040.917602539062	25.93554496765137	42.09668350219727	1134.34814453125	102.9552230834961	45.89806365966797	1161.94873046875	119.0089263916016	43.88278198242188	1063.237426757812	278.3322448730469	40.57180786132812	1118.560791015625	50.88745880126953	688.4705200195312	1387.463012695312	
